<?xml version="1.0" encoding="UTF-8"?>
<svg width="752pt" height="752pt" version="1.1" viewBox="0 0 752 752" xmlns="http://www.w3.org/2000/svg">
 <g>
  <path d="m368.6 339h29.598v14.801h-29.598z"/>
  <path d="m457.4 339h29.598v14.801h-29.598z"/>
  <path d="m457.4 398.2h29.598v14.801h-29.598z"/>
  <path d="m368.6 398.2h29.598v14.801h-29.598z"/>
  <path d="m368.6 457.4h29.598v14.801h-29.598z"/>
  <path d="m457.4 457.4h29.598v14.801h-29.598z"/>
  <path d="m450 553.59h14.801v14.801h-14.801z"/>
  <path d="m575.79 267.96-199.79-115.43-199.79 115.43v182.04h14.801l-0.003907-173.16 184.99-106.55 184.99 106.55v306.35h-73.996c3.6992-4.4414 5.918-9.6211 6.6602-14.801l30.34 0.003906c12.578 0 22.199-9.6211 22.199-22.199v-37c0-12.578-9.6211-22.199-22.199-22.199v-155.39c0-11.84-9.6211-22.199-21.461-22.199h-149.47c-11.84 0-21.461 10.359-21.461 22.199v155.39h-14.801l0.003907-125.79h-14.801v14.801h-35.52c-8.1406 0-15.539 4.4414-19.238 11.84l-53.277 99.895c-2.2188 2.957-2.9609 6.6602-2.9609 10.359v48.098c0 12.578 9.6211 22.199 22.199 22.199h15.539c1.4805 5.1797 3.6992 10.359 6.6602 14.801l-81.395-0.003906v14.801h443.98v-14.801h-22.199zm-274.53 300.43h119.88c1.4805 5.1797 3.6992 10.359 6.6602 14.801l-133.2-0.003906c2.9609-4.4375 5.1797-9.6172 6.6602-14.797zm133.93-7.4023c0-12.578 9.6211-22.199 22.199-22.199 12.578 0 22.199 9.6211 22.199 22.199 0 12.578-9.6211 22.199-22.199 22.199-12.578 0-22.199-9.6172-22.199-22.199zm0-73.996v-44.398h73.996v44.398zm0-103.59h73.996v44.398h-73.996zm-14.801 44.398h-73.996v-44.398h73.996zm88.797-96.199v37h-73.996v-44.398h67.336c3.6992 0 6.6602 3.6992 6.6602 7.3984zm-156.13-7.3984h67.336v44.398h-73.996v-37c0-3.6992 2.9609-7.3984 6.6602-7.3984zm-6.6602 118.39h73.996v44.398h-73.996zm-86.578-48.098c1.4805-2.2188 3.6992-3.6992 6.6602-3.6992h35.52v96.195h-91.016zm-54.016 151.7v-44.398h318.19c4.4414 0 7.3984 2.9609 7.3984 7.3984v37c0 4.4414-2.9609 7.3984-7.3984 7.3984h-30.34c-4.4414-19.98-23.68-33.297-43.66-28.859-14.801 2.9609-25.898 14.059-28.859 28.859h-119.87c-4.4414-19.98-23.68-33.297-43.66-28.859-14.801 2.9609-25.898 14.059-28.859 28.859h-15.539c-4.4375 0-7.3984-2.9609-7.3984-7.3984zm37 14.797c0-12.578 9.6211-22.199 22.199-22.199 12.578 0 22.199 9.6211 22.199 22.199 0 12.578-9.6211 22.199-22.199 22.199-12.582 0-22.199-9.6172-22.199-22.199z"/>
  <path d="m257.61 553.59h14.801v14.801h-14.801z"/>
  <path d="m420.4 223.57-44.398-26.641-44.398 26.641v63.637h88.797zm-73.996 8.8789 22.199-13.32v53.281h-22.199zm59.199 39.961h-22.199v-53.277l22.199 13.32z"/>
 </g>
</svg>
